<?xml version="1.0" encoding="iso-8859-1"?>
<!-- Generator: Adobe Illustrator 19.0.0, SVG Export Plug-In . SVG Version: 6.00 Build 0)  -->
<svg version="1.1" id="Layer_1" xmlns="http://www.w3.org/2000/svg" xmlns:xlink="http://www.w3.org/1999/xlink" x="0px" y="0px"
	 viewBox="0 0 512.001 512.001" style="enable-background:new 0 0 512.001 512.001;" xml:space="preserve">
<g>
	<g>
		<path d="M470.273,241.854c0-57.442-46.732-104.174-104.174-104.174c-12.176,0-24.321,2.166-35.737,6.326v-34.101
			c11.26-4.939,19.147-16.187,19.147-29.249c0-17.604-14.322-31.927-31.927-31.927h-0.073l5.396-39.182
			c0.332-2.405-0.394-4.836-1.99-6.667S317.011,0,314.583,0h-87.747c-2.428,0-4.738,1.051-6.333,2.881
			c-1.595,1.831-2.321,4.262-1.99,6.667l5.396,39.182h-32.535c-9.157,0-17.081,5.567-20.185,14.183
			c-3.104,8.615-0.552,17.956,6.502,23.797l19.773,16.373c4.036,3.343,8.661,5.859,13.588,7.462v97.478
			c0,11.751-6.548,22.459-17.089,27.95c-55.271,28.792-89.605,85.36-89.605,147.631c0,11.361,1.168,22.637,3.437,33.682
			c-2.736-0.329-5.53-0.508-8.374-0.508c-31.812,0-57.694,21.358-57.694,47.612c0,26.254,25.882,47.612,57.694,47.612
			c10.32,0,20.008-2.258,28.399-6.193c8.666,4.057,18.432,6.188,28.523,6.188c15.263,0,29.148-4.925,39.478-12.939h160.679
			c25.025,0,48.028-13.547,60.032-35.356c13.428-24.394,20.526-52.093,20.526-80.1c0-19.689-3.396-38.896-10.103-57.192
			C454.205,306.825,470.273,275.71,470.273,241.854z M304.945,16.804l-4.397,31.926h-59.675l-4.398-31.926H304.945z M208.182,90.14
			l-19.773-16.374c-2.271-1.881-1.742-4.234-1.409-5.158c0.333-0.924,1.426-3.074,4.375-3.074h126.208
			c8.338,0,15.123,6.784,15.123,15.123s-6.783,15.123-15.123,15.123h-93.746C218.133,95.779,212.574,93.776,208.182,90.14z
			 M325.203,278.702c7.611,3.965,14.657,8.679,21.081,14.011H195.129c6.425-5.333,13.47-10.047,21.081-14.011
			c26.533-13.816,43.014-40.899,43.014-70.68v-95.436h22.966v95.436C282.19,237.795,298.672,264.878,325.203,278.702z
			 M266.214,411.292c-0.826-2.671-2.925-4.758-5.603-5.564c-1.031-0.311-22.107-6.526-46.645-4.182
			c1.986-11.109,2.838-24.329,1.213-39.489c-0.298-2.78-1.959-5.231-4.433-6.536c-2.474-1.305-5.434-1.295-7.897,0.028
			c-1.594,0.856-33.431,18.267-48.409,49.192c-1.258-6.949-1.911-14.011-1.911-21.14c0-27.521,9.446-53.472,26.036-74.085h184.282
			c16.591,20.613,26.037,46.564,26.037,74.085c0,17.833-3.88,34.982-11.532,50.972c-4.742,9.909-14.918,16.311-25.925,16.311
			H228.517c11.157-6.657,24.015-16.72,36.209-31.839C266.482,416.87,267.039,413.963,266.214,411.292z M99.421,495.196
			c-22.547,0-40.89-13.82-40.89-30.807c0-16.988,18.343-30.808,40.89-30.808s40.89,13.82,40.89,30.808
			C140.311,481.376,121.968,495.196,99.421,495.196z M127.812,422.965c-0.527-0.246-1.058-0.488-1.594-0.723
			c-3.344-12.56-5.056-25.538-5.056-38.641c0-55.982,30.87-106.842,80.565-132.728c16.117-8.393,26.13-24.813,26.13-42.853v-95.436
			h14.564v95.436c0,23.492-13.018,44.864-33.972,55.776c-44.857,23.367-72.723,69.272-72.723,119.804
			c0,11.891,1.566,23.627,4.622,35.022C135.988,419.655,131.783,421.105,127.812,422.965z M156.342,495.193
			c-4.008,0-7.924-0.458-11.681-1.31c7.787-8.117,12.454-18.361,12.454-29.495c0-11.136-4.669-21.383-12.46-29.5
			c3.759-0.853,7.677-1.311,11.687-1.311c22.547,0,40.89,13.82,40.89,30.807C197.232,481.373,178.889,495.193,156.342,495.193z
			 M193.428,414.116c-1.528,4.461-3.148,8.13-4.567,10.966c-6.414-3.625-13.756-6.204-21.666-7.452
			c6.736-18.022,21.535-31.686,32.024-39.578C199.174,393.613,196.243,405.894,193.428,414.116z M202.302,435.647
			c2.124-3.866,4.78-9.436,7.194-16.588c12.13-2,23.982-1.228,32.654,0.003c-12.762,12.716-25.342,19.77-34.482,23.622
			C206.124,440.206,204.33,437.85,202.302,435.647z M412.234,316.056c-3.486,2.173-4.89,6.549-3.317,10.345
			c7.523,18.16,11.336,37.406,11.336,57.201c0,25.182-6.377,50.077-18.442,71.997c-9.051,16.441-26.413,26.655-45.312,26.655
			H209.805c2.241-4.549,3.65-9.446,4.077-14.564h137.546c17.438,0,33.565-10.152,41.083-25.862
			c8.745-18.273,13.179-37.863,13.179-58.226c0-50.531-27.866-96.438-72.723-119.803c-20.956-10.918-33.973-32.291-33.973-55.777
			v-95.436h14.564v44.273c0,2.936,1.533,5.659,4.041,7.182c2.51,1.524,5.633,1.629,8.237,0.273
			c12.545-6.522,26.092-9.829,40.263-9.829c48.176,0,87.37,39.194,87.37,87.37C453.469,272.22,438.054,299.958,412.234,316.056z"/>
	</g>
</g>
<g>
	<g>
		<path d="M366.098,188.737c-20.979,0-40.04,12.399-48.559,31.587c-0.952,2.145-0.965,4.59-0.034,6.744
			c4.409,10.199,12.288,18.655,22.188,23.811c16.626,8.66,31.34,20.25,43.729,34.447c1.647,1.887,3.976,2.878,6.334,2.878
			c1.529,0,3.072-0.417,4.449-1.277c15.661-9.786,25.012-26.635,25.012-45.071C419.218,212.566,395.388,188.737,366.098,188.737z
			 M390.792,268.489c-12.611-13.169-27.157-24.086-43.336-32.513c-5.366-2.795-9.824-7.063-12.835-12.228
			c6.435-11.173,18.412-18.207,31.475-18.207c20.025,0,36.316,16.291,36.316,36.316
			C402.414,252.129,398.164,261.681,390.792,268.489z"/>
	</g>
</g>
<g>
</g>
<g>
</g>
<g>
</g>
<g>
</g>
<g>
</g>
<g>
</g>
<g>
</g>
<g>
</g>
<g>
</g>
<g>
</g>
<g>
</g>
<g>
</g>
<g>
</g>
<g>
</g>
<g>
</g>
</svg>
