<?xml version="1.0" encoding="iso-8859-1"?>
<!-- Generator: Adobe Illustrator 17.1.0, SVG Export Plug-In . SVG Version: 6.00 Build 0)  -->
<!DOCTYPE svg PUBLIC "-//W3C//DTD SVG 1.1//EN" "http://www.w3.org/Graphics/SVG/1.1/DTD/svg11.dtd">
<svg version="1.1" id="Capa_1" xmlns="http://www.w3.org/2000/svg" xmlns:xlink="http://www.w3.org/1999/xlink" x="0px" y="0px"
	 viewBox="0 0 426.784 426.784" style="enable-background:new 0 0 426.784 426.784;" xml:space="preserve">
<path id="XMLID_192_" d="M156.352,100.081c1.369,0.92,2.92,1.361,4.455,1.361c2.574,0,5.103-1.241,6.646-3.539
	c2.938-4.373,13.539-18.111,26.506-11.348c9.95,5.188,18.939,8.252,27.598,9.9c0.117,0.029,0.897,0.187,1.17,0.214
	c9.718,1.713,19.052,1.669,28.9,0.86c3.577-0.293,6.827,0.446,9.676,2.2c3.763,2.319,8.69,1.145,11.007-2.618
	c2.316-3.762,1.145-8.69-2.618-11.007c-5.814-3.58-12.339-5.102-19.375-4.521c-5.814,0.477-11.208,0.658-16.518,0.33
	c5.238-13.849,15.912-25.142,29.777-31.054c4.063-1.733,5.953-6.433,4.22-10.497c-1.732-4.063-6.433-5.955-10.497-4.221
	c-3.709,1.582-7.237,3.468-10.569,5.613c-0.703-7.866-3.381-15.597-8.025-22.28C228.936,5.41,212.324-1.891,195.342,0.422
	c-2.54,0.346-4.762,1.889-5.973,4.15c-8.088,15.103-7.043,33.221,2.729,47.281c6.91,9.951,17.509,16.66,29.045,18.931
	c-1.288,2.697-2.406,5.487-3.349,8.353c-5.167-1.517-10.551-3.701-16.436-6.769c-16.204-8.447-34.726-1.928-47.184,16.611
	C151.709,92.646,152.685,97.616,156.352,100.081z M205.238,42.724c-5.506-7.923-6.729-17.837-3.497-26.721
	c9.454,0.069,18.319,4.674,23.824,12.599c5.541,7.976,6.867,18.192,3.742,27.043C219.899,55.495,210.775,50.696,205.238,42.724z
	 M253.04,121.445c-1.552,2.257-4.055,3.47-6.601,3.47c-1.563,0-3.14-0.457-4.524-1.408c-0.939-0.646-1.964-0.91-3.221-0.835
	c-4.388,0.264-8.202-3.091-8.469-7.501c-0.268-4.41,3.091-8.202,7.501-8.469c4.809-0.289,9.382,0.961,13.251,3.619
	C254.618,112.823,255.541,117.803,253.04,121.445z M402.343,16.756c-13.874-10.06-31.966-11.476-47.215-3.7
	c-7.248,3.694-13.286,9.204-17.647,15.768c-1.913-3.436-4.116-6.738-6.618-9.86c-2.766-3.448-7.8-4.003-11.246-1.24
	c-3.447,2.763-4.003,7.797-1.24,11.246c9.733,12.145,13.767,27.739,11.368,42.873c-8.622-0.953-17.353,0.667-25.255,4.784
	c-10.507,5.474-18.24,14.676-21.776,25.909l-5.181,16.454c-16.973,0.582-33.913,14.979-42.188,36.884
	c-1.562,4.133,0.523,8.75,4.656,10.311c0.931,0.352,1.886,0.518,2.826,0.518c3.231,0,6.275-1.973,7.484-5.175
	c6.451-17.075,20.195-28.602,31.276-26.245c4.033,0.859,8.058-1.49,9.296-5.422l7.091-22.521
	c2.253-7.157,7.192-13.026,13.907-16.524c6.716-3.499,14.354-4.186,21.514-1.931c0.017,0.005,0.032,0.01,0.049,0.015
	c14.825,4.695,23.083,20.567,18.412,35.406l-7.142,22.683c-1.228,3.898,0.681,8.094,4.425,9.732c2.851,1.247,5.303,3.399,7.29,6.398
	c2.439,3.683,7.402,4.692,11.088,2.25c3.683-2.44,4.69-7.404,2.25-11.087c-2.25-3.396-4.891-6.243-7.894-8.515l5.244-16.656
	c6.556-20.825-3.152-42.938-21.94-52.608c0.615-3.228,1.005-6.476,1.166-9.724c4.288,1.28,8.763,1.934,13.266,1.934
	c7.265,0,14.596-1.683,21.29-5.095c15.254-7.775,24.736-23.248,24.746-40.381C405.649,20.672,404.419,18.262,402.343,16.756z
	 M373.635,49.363c-8.772,4.472-19.14,4.459-27.484,0.197c1.478-9.258,7.636-17.863,16.244-22.25
	c8.592-4.381,18.58-4.25,26.947,0.156C387.992,36.823,382.229,44.983,373.635,49.363z M331.253,148.431
	c-1.068,3.292-1.478,6.61-1.175,9.408c0.477,4.393-2.699,8.339-7.092,8.815c-0.292,0.032-0.584,0.047-0.871,0.047
	c-4.032,0-7.5-3.039-7.943-7.139c-0.693-6.398,0.618-12.233,1.841-16.001l8.96-28.455c1.326-4.214,5.818-6.557,10.034-5.228
	c4.214,1.327,6.555,5.819,5.228,10.033L331.253,148.431z M50.203,118.085c5.354,2.026,10.965,3.011,16.529,3.011
	c6.259,0,12.457-1.25,18.163-3.665c0.463,2.889,1.11,5.759,1.936,8.594c-5.119,1.675-10.793,2.923-17.382,3.725
	c-14.146,1.723-24.376,11.6-28.063,27.098c-1.023,4.298,1.632,8.612,5.931,9.635c0.622,0.148,1.245,0.219,1.858,0.219
	c3.62,0,6.901-2.475,7.775-6.15c1.472-6.184,5.17-13.792,14.433-14.919c11.052-1.346,20.13-3.888,28.153-7.388
	c0.181-0.062,0.363-0.122,0.542-0.198c0.288-0.122,0.562-0.262,0.827-0.412c8.941-4.084,16.594-9.383,24.229-15.605
	c4.542-3.703,9.905-4.618,15.942-2.724c11.718,3.681,22.904,16.76,27.203,31.808c0.795,2.782,1.386,5.674,1.757,8.595
	c0.558,4.382,4.555,7.487,8.945,6.927c4.383-0.557,7.484-4.562,6.928-8.945c-0.474-3.722-1.229-7.414-2.245-10.972
	c-5.783-20.244-20.972-37.395-37.794-42.678c-11.168-3.509-22.122-1.524-30.845,5.586c-4.522,3.685-8.866,6.887-13.428,9.624
	c-3.523-14.38-1.117-29.731,6.963-42.452c2.369-3.729,1.266-8.673-2.464-11.042c-3.73-2.37-8.673-1.266-11.042,2.464
	c-2.142,3.372-3.968,6.89-5.492,10.508C84.506,72.694,77.9,67.884,70.289,65.004c-16.012-6.059-33.841-2.669-46.528,8.845
	c-1.899,1.724-2.856,4.254-2.574,6.803C23.07,97.683,34.188,112.026,50.203,118.085z M64.626,79.968
	c9.046,3.424,16.115,11.29,18.599,20.305c-7.84,5.169-18.152,6.331-27.36,2.846c-9.023-3.414-15.645-10.893-18.01-20.047
	C45.69,77.777,55.604,76.555,64.626,79.968z M158.927,156.388c1.162,4.263-1.352,8.66-5.614,9.822
	c-0.705,0.192-1.413,0.284-2.109,0.284c-3.519,0-6.743-2.339-7.714-5.898c-1.43-5.247-5.354-9.885-9.543-11.279
	c-2.678-0.891-4.273,0.008-5.24,0.763c-3.484,2.717-8.512,2.095-11.228-1.389c-2.717-3.484-2.095-8.511,1.389-11.228
	c5.811-4.531,12.962-5.713,20.13-3.327C148.259,137.217,156.082,145.952,158.927,156.388z M63.572,332.986c4.418,0,8,3.582,8,8
	v2.051c0,4.418-3.582,8-8,8s-8-3.582-8-8v-2.051C55.572,336.568,59.154,332.986,63.572,332.986z M347.537,351.037
	c-4.418,0-8-3.582-8-8v-2.051c0-4.418,3.582-8,8-8s8,3.582,8,8v2.051C355.537,347.456,351.955,351.037,347.537,351.037z
	 M63.572,270.388c4.418,0,8,3.582,8,8v2.051c0,4.418-3.582,8-8,8s-8-3.582-8-8v-2.051C55.572,273.97,59.154,270.388,63.572,270.388z
	 M347.537,288.439c-4.418,0-8-3.582-8-8v-2.051c0-4.418,3.582-8,8-8s8,3.582,8,8v2.051
	C355.537,284.858,351.955,288.439,347.537,288.439z M363.388,177.517H47.719c-12.539,0-22.74,10.202-22.74,22.742v33.115
	c0,5.621,2.054,10.768,5.445,14.742c-3.391,3.973-5.445,9.12-5.445,14.741v33.115c0,5.621,2.054,10.768,5.445,14.741
	c-3.391,3.973-5.445,9.121-5.445,14.742v33.116c0,12.54,10.201,22.741,22.74,22.741h136.876c4.418,0,8-3.582,8-8s-3.582-8-8-8
	H47.719c-3.717,0-6.74-3.024-6.74-6.741v-33.116c0-3.717,3.023-6.742,6.74-6.742H238.81c4.418,0,8-3.582,8-8s-3.582-8-8-8H47.719
	c-3.717,0-6.74-3.024-6.74-6.741v-33.115c0-3.717,3.023-6.741,6.74-6.741h315.669c3.717,0,6.74,3.024,6.74,6.741v33.115
	c0,3.717-3.023,6.741-6.74,6.741h-55.646c-4.418,0-8,3.582-8,8s3.582,8,8,8h55.646c3.717,0,6.74,3.024,6.74,6.742v33.116
	c0,3.717-3.023,6.741-6.74,6.741h-27.09c-4.418,0-8,3.582-8,8s3.582,8,8,8h27.09c12.539,0,22.74-10.202,22.74-22.741v-33.116
	c0-5.621-2.054-10.768-5.445-14.742c3.391-3.973,5.445-9.12,5.445-14.741v-33.115c0-5.621-2.054-10.768-5.445-14.741
	c3.391-3.973,5.445-9.121,5.445-14.742v-33.115C386.128,187.718,375.927,177.517,363.388,177.517z M40.979,200.258
	c0-3.717,3.023-6.742,6.74-6.742h315.669c3.717,0,6.74,3.024,6.74,6.742v33.115c0,3.717-3.023,6.742-6.74,6.742H47.719
	c-3.717,0-6.74-3.024-6.74-6.742V200.258z M55.572,217.841v-2.051c0-4.418,3.582-8,8-8s8,3.582,8,8v2.051c0,4.418-3.582,8-8,8
	S55.572,222.259,55.572,217.841z M339.537,217.841v-2.051c0-4.418,3.582-8,8-8s8,3.582,8,8v2.051c0,4.418-3.582,8-8,8
	S339.537,222.259,339.537,217.841z M303.174,338.173c-7.102-6.215-15.843-8.304-24.617-5.885h0.001
	c-3.086,0.851-6.023,1.551-8.927,2.052c2.331-9.202,7.983-17.356,16.052-22.762c3.67-2.459,4.652-7.428,2.193-11.099
	c-2.459-3.67-7.429-4.653-11.1-2.194c-12.629,8.461-21.052,21.695-23.548,36.429c-3.329-0.443-6.849-1.206-10.708-2.372
	c-8.646-2.613-17.33-0.705-24.45,5.374c-10.641,9.086-16.27,26.271-14.007,42.762c3.563,25.966,24.188,46.306,46.953,46.306
	c3.235,0,6.395-0.422,9.429-1.257c3.035,0.835,6.195,1.257,9.43,1.257c22.765,0,43.389-20.34,46.953-46.306
	C319.051,364.268,313.565,347.267,303.174,338.173z M300.977,378.303c-2.417,17.606-16.659,32.481-31.102,32.481
	c-2.336,0-4.577-0.39-6.661-1.159c-0.894-0.33-1.831-0.494-2.769-0.494s-1.876,0.165-2.77,0.495
	c-2.083,0.769-4.323,1.158-6.659,1.158c-14.443,0-28.686-14.875-31.102-32.48c-1.503-10.956,2.091-22.908,8.546-28.42
	c2.954-2.521,6.037-3.25,9.431-2.226c8.211,2.482,15.391,3.499,22.122,3.512c0.104,0.005,0.757,0.006,0.921-0.004
	c7.562-0.09,14.583-1.442,21.876-3.454h0.001c3.563-0.984,6.778-0.165,9.824,2.501C299.046,355.823,302.476,367.374,300.977,378.303
	z"/>
<g>
</g>
<g>
</g>
<g>
</g>
<g>
</g>
<g>
</g>
<g>
</g>
<g>
</g>
<g>
</g>
<g>
</g>
<g>
</g>
<g>
</g>
<g>
</g>
<g>
</g>
<g>
</g>
<g>
</g>
</svg>
