<svg xmlns="http://www.w3.org/2000/svg" viewBox="0 0 32.01 67.54"><defs><style>.cls-1{fill:#c3bf30;}.cls-2{fill:#d99728;}</style></defs><title>no border</title><g id="Layer_2" data-name="Layer 2"><g id="Layer_1-2" data-name="Layer 1"><line class="cls-1" x1="1.11" y1="3.27" x2="1.11" y2="33.5"/><path class="cls-2" d="M1.22,3.27c.17,2.52.28,5,.43,7.56L2,18.39c.09,2.52.37,5,.21,7.56a44,44,0,0,1-1,7.56H1a44,44,0,0,1-1-7.56c-.16-2.52.12-5,.21-7.56l.32-7.56c.14-2.52.26-5,.43-7.56Z"/><line class="cls-1" x1="8.78" y1="3.27" x2="8.78" y2="22.3"/><path class="cls-2" d="M8.88,3.27c.17,1.59.28,3.17.43,4.76l.32,4.76a30.5,30.5,0,0,1,.21,4.76,18.12,18.12,0,0,1-1,4.76H8.67a18.12,18.12,0,0,1-1-4.76,30.5,30.5,0,0,1,.21-4.76L8.24,8c.14-1.59.26-3.17.43-4.76Z"/><line class="cls-1" x1="23.24" y1="3.27" x2="23.24" y2="22.3"/><path class="cls-2" d="M23.35,3.27c.17,1.59.28,3.17.43,4.76l.32,4.76a30.5,30.5,0,0,1,.21,4.76,18.12,18.12,0,0,1-1,4.76h-.21a18.12,18.12,0,0,1-1-4.76,30.5,30.5,0,0,1,.21-4.76L22.71,8c.14-1.59.26-3.17.43-4.76Z"/><line class="cls-1" x1="16.01" x2="16.01" y2="14.17"/><path class="cls-2" d="M16.11,0c.17,1.18.28,2.36.43,3.54s.23,2.36.32,3.54a17,17,0,0,1,.21,3.54,10.56,10.56,0,0,1-1,3.54H15.9a10.56,10.56,0,0,1-1-3.54,17,17,0,0,1,.21-3.54q.13-1.77.32-3.54c.14-1.18.26-2.36.43-3.54Z"/><line class="cls-1" x1="30.9" y1="3.27" x2="30.9" y2="33.5"/><path class="cls-2" d="M31,3.27c.17,2.52.28,5,.43,7.56l.32,7.56c.09,2.52.37,5,.21,7.56a44,44,0,0,1-1,7.56h-.21a44,44,0,0,1-1-7.56c-.16-2.52.12-5,.21-7.56l.32-7.56c.14-2.52.26-5,.43-7.56Z"/><path class="cls-2" d="M15.13,45a14.33,14.33,0,0,1-5.7-1.17,14.77,14.77,0,0,1-4.64-3.15A15,15,0,0,1,1.66,36,14.53,14.53,0,0,1,.51,29.39l.05-1,1-.05a14.48,14.48,0,0,1,6.6,1.15,15,15,0,0,1,4.65,3.14,14.74,14.74,0,0,1,3.14,4.63A14.41,14.41,0,0,1,17,43.93l-.05.95-.95.05ZM2.61,30.49a12.3,12.3,0,0,0,1,4.69,12.89,12.89,0,0,0,2.68,4,12.63,12.63,0,0,0,4,2.69,12.1,12.1,0,0,0,4.68,1,12.14,12.14,0,0,0-1-4.7,12.6,12.6,0,0,0-2.68-3.95,12.89,12.89,0,0,0-4-2.69A12.26,12.26,0,0,0,2.61,30.49Z"/><path class="cls-2" d="M15.13,56.21A14.33,14.33,0,0,1,9.43,55a14.77,14.77,0,0,1-4.64-3.15,15,15,0,0,1-3.12-4.63A14.53,14.53,0,0,1,.51,40.64l.05-1,1-.05a14.44,14.44,0,0,1,6.6,1.15,15,15,0,0,1,4.65,3.14,14.74,14.74,0,0,1,3.14,4.63A14.41,14.41,0,0,1,17,55.18l-.05.95-.95.05ZM2.61,41.74a12.3,12.3,0,0,0,1,4.69,12.89,12.89,0,0,0,2.68,4,12.63,12.63,0,0,0,4,2.69,12.1,12.1,0,0,0,4.68,1,12.14,12.14,0,0,0-1-4.7,12.6,12.6,0,0,0-2.68-3.95,12.89,12.89,0,0,0-4-2.69A12.26,12.26,0,0,0,2.61,41.74Z"/><path class="cls-2" d="M15.13,67.54a14.32,14.32,0,0,1-5.7-1.17,14.77,14.77,0,0,1-4.64-3.15A15,15,0,0,1,1.66,58.6,14.54,14.54,0,0,1,.51,52l.05-1,1-.05a14.51,14.51,0,0,1,6.6,1.15,15,15,0,0,1,4.65,3.13,14.74,14.74,0,0,1,3.14,4.63A14.39,14.39,0,0,1,17,66.51l-.05.95-.95.05ZM2.61,53.08a12.3,12.3,0,0,0,1,4.69,12.89,12.89,0,0,0,2.68,4,12.64,12.64,0,0,0,4,2.69,12.11,12.11,0,0,0,4.68,1,12.13,12.13,0,0,0-1-4.7,12.59,12.59,0,0,0-2.68-3.95,12.89,12.89,0,0,0-4-2.69A12.26,12.26,0,0,0,2.61,53.08Z"/><path class="cls-2" d="M16.89,45l-.92,0L15,44.87,15,43.93a14.39,14.39,0,0,1,1.14-6.61,14.77,14.77,0,0,1,3.15-4.64,15,15,0,0,1,4.63-3.13,14.47,14.47,0,0,1,6.62-1.16l1,.05.05,1A14.51,14.51,0,0,1,30.36,36a15,15,0,0,1-3.13,4.65,14.75,14.75,0,0,1-4.62,3.14A14.36,14.36,0,0,1,16.89,45ZM29.41,30.49a12.32,12.32,0,0,0-4.69,1,12.86,12.86,0,0,0-4,2.68,12.63,12.63,0,0,0-2.69,4,12.11,12.11,0,0,0-1,4.69,12.14,12.14,0,0,0,4.7-1,12.6,12.6,0,0,0,3.94-2.68,12.9,12.9,0,0,0,2.68-4A12.27,12.27,0,0,0,29.41,30.49Z"/><path class="cls-2" d="M16,38.75l-.71-.63a14.39,14.39,0,0,1-3.87-5.48,14.77,14.77,0,0,1-1.06-5.51,15,15,0,0,1,1.06-5.48,14.55,14.55,0,0,1,3.86-5.5L16,15.5l.71.64a14.51,14.51,0,0,1,3.85,5.48,15,15,0,0,1,1.07,5.5,14.75,14.75,0,0,1-1,5.49,14.39,14.39,0,0,1-3.88,5.5ZM16,18.4a12.31,12.31,0,0,0-2.6,4,12.86,12.86,0,0,0-.91,4.69,12.63,12.63,0,0,0,.9,4.7,12.12,12.12,0,0,0,2.61,4,12.14,12.14,0,0,0,2.61-4,12.61,12.61,0,0,0,.89-4.69,12.88,12.88,0,0,0-.91-4.71A12.24,12.24,0,0,0,16,18.4Z"/><path class="cls-2" d="M16.89,56.21l-.92,0L15,56.13,15,55.18a14.39,14.39,0,0,1,1.14-6.61,14.77,14.77,0,0,1,3.15-4.64,15,15,0,0,1,4.63-3.13,14.52,14.52,0,0,1,6.62-1.16l1,.05.05,1a14.51,14.51,0,0,1-1.15,6.6,15,15,0,0,1-3.13,4.65A14.75,14.75,0,0,1,22.6,55,14.36,14.36,0,0,1,16.89,56.21ZM29.41,41.74a12.32,12.32,0,0,0-4.69,1,12.86,12.86,0,0,0-4,2.68,12.63,12.63,0,0,0-2.69,4,12.11,12.11,0,0,0-1,4.69,12.14,12.14,0,0,0,4.7-1,12.6,12.6,0,0,0,3.94-2.68,12.9,12.9,0,0,0,2.68-4A12.27,12.27,0,0,0,29.41,41.74Z"/><path class="cls-2" d="M16.89,67.54l-.92,0L15,67.46,15,66.51a14.39,14.39,0,0,1,1.14-6.61,14.77,14.77,0,0,1,3.15-4.64,15,15,0,0,1,4.63-3.13A14.45,14.45,0,0,1,30.5,51l1,.05.05,1a14.51,14.51,0,0,1-1.15,6.6,15,15,0,0,1-3.13,4.65,14.74,14.74,0,0,1-4.62,3.14A14.36,14.36,0,0,1,16.89,67.54ZM29.41,53.08a12.29,12.29,0,0,0-4.69,1,12.85,12.85,0,0,0-4,2.68,12.63,12.63,0,0,0-2.69,4,12.11,12.11,0,0,0-1,4.68,12.14,12.14,0,0,0,4.7-1,12.61,12.61,0,0,0,3.94-2.68,12.9,12.9,0,0,0,2.68-4A12.27,12.27,0,0,0,29.41,53.08Z"/></g></g></svg>