<?xml version="1.0" encoding="iso-8859-1"?>
<!-- Generator: Adobe Illustrator 16.0.0, SVG Export Plug-In . SVG Version: 6.00 Build 0)  -->
<!DOCTYPE svg PUBLIC "-//W3C//DTD SVG 1.1//EN" "http://www.w3.org/Graphics/SVG/1.1/DTD/svg11.dtd">
<svg version="1.1" id="Capa_1" xmlns="http://www.w3.org/2000/svg" xmlns:xlink="http://www.w3.org/1999/xlink" x="0px" y="0px"
	 width="235.532px" height="235.532px" viewBox="0 0 235.532 235.532" style="enable-background:new 0 0 235.532 235.532;"
	 xml:space="preserve">
<g>
	<g>
		<path d="M160.184,65.543V23.948c0.682-0.651,1.118-1.537,1.118-2.548V3.571c0-1.961-1.604-3.571-3.562-3.571h-1.114h-26.729h-1.13
			c-1.976,0-3.571,1.601-3.571,3.571V21.4c0,1.004,0.453,1.905,1.135,2.548v41.595c-14.976,6.655-24.886,21.672-24.886,38.105
			v52.689H54.027c-1.97,0-3.564,1.595-3.564,3.574c0,17.533,13.385,31.848,30.446,33.654v34.821H63.675
			c-1.97,0-3.573,1.595-3.573,3.574c0,1.96,1.603,3.57,3.573,3.57h20.796h20.538h0.26h76.233c1.972,0,3.566-1.61,3.566-3.57V103.656
			C185.069,87.216,175.163,72.216,160.184,65.543z M133.458,7.144h19.604v10.684h-19.604V7.144z M108.582,103.648
			c0-14.305,9.064-27.319,22.56-32.368c1.398-0.517,2.316-1.854,2.316-3.346V24.973h19.604v42.961c0,1.493,0.909,2.821,2.312,3.346
			c13.517,5.058,22.565,18.071,22.565,32.368v6.264h-69.358V103.648z M108.582,117.057h69.358v69.717h-69.358v-2.913
			c6.105-6.164,9.904-14.619,9.904-23.965c0-1.964-1.599-3.57-3.568-3.57h-6.336V117.057z M101.443,163.471h7.139h2.524
			c-0.375,2.781-1.372,5.351-2.524,7.795c-1.715,3.603-4.092,6.748-7.139,9.285c-4.645,3.811-10.501,6.239-16.972,6.239
			c-13.605,0-24.902-10.179-26.641-23.319H101.443z M88.042,193.543c4.853-0.497,9.369-1.992,13.401-4.336v39.156H88.042V193.543z
			 M177.94,228.371h-69.358V193.92h69.358V228.371z"/>
		<path d="M143.256,162.902c3.234,0,5.859,2.889,5.859,6.447s-2.625,6.44-5.859,6.44c-3.233,0-5.858-2.882-5.858-6.44
			S140.022,162.902,143.256,162.902z"/>
		<path d="M125.315,135.167c3.237,0,5.866,2.881,5.866,6.439c0,3.547-2.629,6.432-5.866,6.432c-3.234,0-5.863-2.885-5.863-6.432
			C119.452,138.048,122.081,135.167,125.315,135.167z"/>
		<path d="M143.256,148.038c3.234,0,5.859-2.877,5.859-6.432c0-2.012-0.897-3.751-2.232-4.909c2.661-4.1,9.606-9.59,9.606-9.59
			l-4.602-3.051l-8.632,11.119c-3.241,0-5.858,2.881-5.858,6.436C137.397,145.161,140.015,148.038,143.256,148.038z"/>
		<path d="M161.182,135.167c3.233,0,5.839,2.881,5.839,6.439c0,3.547-2.605,6.432-5.839,6.432c-3.222,0-5.835-2.885-5.835-6.432
			C155.347,138.048,157.96,135.167,161.182,135.167z"/>
		<path d="M128.396,155.184c0,3.547,2.653,6.432,5.875,6.432c3.234,0,5.871-2.885,5.871-6.432c0-3.559-2.637-6.428-5.871-6.428
			C131.05,148.752,128.396,151.625,128.396,155.184z"/>
		<path d="M152.241,148.752c-3.234,0-5.871,2.873-5.871,6.432c0,3.539,2.637,6.424,5.871,6.424c3.205,0,5.87-2.885,5.87-6.424
			C158.111,151.625,155.446,148.752,152.241,148.752z"/>
	</g>
</g>
<g>
</g>
<g>
</g>
<g>
</g>
<g>
</g>
<g>
</g>
<g>
</g>
<g>
</g>
<g>
</g>
<g>
</g>
<g>
</g>
<g>
</g>
<g>
</g>
<g>
</g>
<g>
</g>
<g>
</g>
</svg>
